<?xml version="1.0" encoding="utf-8" standalone="no"?>
<!DOCTYPE svg PUBLIC "-//W3C//DTD SVG 1.1//EN"
  "http://www.w3.org/Graphics/SVG/1.1/DTD/svg11.dtd">
<!-- Created with matplotlib (http://matplotlib.org/) -->
<svg height="576pt" version="1.1" viewBox="0 0 576 576" width="576pt" xmlns="http://www.w3.org/2000/svg" xmlns:xlink="http://www.w3.org/1999/xlink">
 <defs>
  <style type="text/css">
*{stroke-linecap:butt;stroke-linejoin:round;}
  </style>
 </defs>
 <g id="figure_1">
  <g id="patch_1">
   <path d="M 0 576 
L 576 576 
L 576 0 
L 0 0 
z
" style="fill:#ffffff;"/>
  </g>
  <g id="axes_1">
   <g id="patch_2">
    <path d="M 72 512.64 
L 518.4 512.64 
L 518.4 69.12 
L 72 69.12 
z
" style="fill:#ffffff;"/>
   </g>
   <g id="patch_3">
    <path clip-path="url(#pb88d89fcd9)" d="M 424.357638 197.646893 
L 423.26194 201.178933 
L 421.993734 199.444659 
L 405.011669 211.70325 
L 404.924207 211.583645 
L 421.906272 199.325054 
L 420.638067 197.59078 
z
" style="fill:#1f77b4;stroke:#000000;stroke-linejoin:miter;stroke-width:4;"/>
   </g>
   <g id="patch_4">
    <path clip-path="url(#pb88d89fcd9)" d="M 346.037173 135.428692 
L 347.240297 138.926052 
L 345.188297 138.263619 
L 334.692804 170.357028 
L 334.551287 170.311343 
L 345.04678 138.217934 
L 342.994781 137.5555 
z
" style="fill:#1f77b4;stroke:#000000;stroke-linejoin:miter;stroke-width:4;"/>
   </g>
   <g id="patch_5">
    <path clip-path="url(#pb88d89fcd9)" d="M 244.362827 135.428692 
L 247.405219 137.5555 
L 245.35322 138.217934 
L 255.848713 170.311343 
L 255.707196 170.357028 
L 245.211703 138.263619 
L 243.159703 138.926052 
z
" style="fill:#1f77b4;stroke:#000000;stroke-linejoin:miter;stroke-width:4;"/>
   </g>
   <g id="patch_6">
    <path clip-path="url(#pb88d89fcd9)" d="M 166.042362 197.646893 
L 169.761933 197.59078 
L 168.493728 199.325054 
L 185.475793 211.583645 
L 185.388331 211.70325 
L 168.406266 199.444659 
L 167.13806 201.178933 
z
" style="fill:#1f77b4;stroke:#000000;stroke-linejoin:miter;stroke-width:4;"/>
   </g>
   <g id="patch_7">
    <path clip-path="url(#pb88d89fcd9)" d="M 183.59418 371.443237 
L 182.498482 374.975276 
L 181.230277 373.241002 
L 164.248212 385.499594 
L 164.160749 385.379989 
L 181.142814 373.121397 
L 179.874609 371.387124 
z
" style="fill:#1f77b4;stroke:#000000;stroke-linejoin:miter;stroke-width:4;"/>
   </g>
   <g id="patch_8">
    <path clip-path="url(#pb88d89fcd9)" d="M 254.073716 416.637083 
L 255.276839 420.134443 
L 253.22484 419.47201 
L 242.729346 451.565418 
L 242.587829 451.519733 
L 253.083323 419.426325 
L 251.031323 418.763891 
z
" style="fill:#1f77b4;stroke:#000000;stroke-linejoin:miter;stroke-width:4;"/>
   </g>
   <g id="patch_9">
    <path clip-path="url(#pb88d89fcd9)" d="M 336.326284 416.637083 
L 339.368677 418.763891 
L 337.316677 419.426325 
L 347.812171 451.519733 
L 347.670654 451.565418 
L 337.17516 419.47201 
L 335.123161 420.134443 
z
" style="fill:#1f77b4;stroke:#000000;stroke-linejoin:miter;stroke-width:4;"/>
   </g>
   <g id="patch_10">
    <path clip-path="url(#pb88d89fcd9)" d="M 406.80582 371.443237 
L 410.525391 371.387124 
L 409.257186 373.121397 
L 426.239251 385.379989 
L 426.151788 385.499594 
L 409.169723 373.241002 
L 407.901518 374.975276 
z
" style="fill:#1f77b4;stroke:#000000;stroke-linejoin:miter;stroke-width:4;"/>
   </g>
   <g id="matplotlib.axis_1">
    <g id="xtick_1">
     <g id="line2d_1">
      <defs>
       <path d="M 0 0 
L 0 3.5 
" id="m1623b657a8" style="stroke:#000000;stroke-width:0.8;"/>
      </defs>
      <g>
       <use style="stroke:#000000;stroke-width:0.8;" x="72" xlink:href="#m1623b657a8" y="512.64"/>
      </g>
     </g>
     <g id="text_1">
      <!-- −1.5 -->
      <defs>
       <path d="M 10.59375 35.5 
L 73.1875 35.5 
L 73.1875 27.203125 
L 10.59375 27.203125 
z
" id="DejaVuSans-2212"/>
       <path d="M 12.40625 8.296875 
L 28.515625 8.296875 
L 28.515625 63.921875 
L 10.984375 60.40625 
L 10.984375 69.390625 
L 28.421875 72.90625 
L 38.28125 72.90625 
L 38.28125 8.296875 
L 54.390625 8.296875 
L 54.390625 0 
L 12.40625 0 
z
" id="DejaVuSans-31"/>
       <path d="M 10.6875 12.40625 
L 21 12.40625 
L 21 0 
L 10.6875 0 
z
" id="DejaVuSans-2e"/>
       <path d="M 10.796875 72.90625 
L 49.515625 72.90625 
L 49.515625 64.59375 
L 19.828125 64.59375 
L 19.828125 46.734375 
Q 21.96875 47.46875 24.109375 47.828125 
Q 26.265625 48.1875 28.421875 48.1875 
Q 40.625 48.1875 47.75 41.5 
Q 54.890625 34.8125 54.890625 23.390625 
Q 54.890625 11.625 47.5625 5.09375 
Q 40.234375 -1.421875 26.90625 -1.421875 
Q 22.3125 -1.421875 17.546875 -0.640625 
Q 12.796875 0.140625 7.71875 1.703125 
L 7.71875 11.625 
Q 12.109375 9.234375 16.796875 8.0625 
Q 21.484375 6.890625 26.703125 6.890625 
Q 35.15625 6.890625 40.078125 11.328125 
Q 45.015625 15.765625 45.015625 23.390625 
Q 45.015625 31 40.078125 35.4375 
Q 35.15625 39.890625 26.703125 39.890625 
Q 22.75 39.890625 18.8125 39.015625 
Q 14.890625 38.140625 10.796875 36.28125 
z
" id="DejaVuSans-35"/>
      </defs>
      <g transform="translate(59.858594 527.238438)scale(0.1 -0.1)">
       <use xlink:href="#DejaVuSans-2212"/>
       <use x="83.789062" xlink:href="#DejaVuSans-31"/>
       <use x="147.412109" xlink:href="#DejaVuSans-2e"/>
       <use x="179.199219" xlink:href="#DejaVuSans-35"/>
      </g>
     </g>
    </g>
    <g id="xtick_2">
     <g id="line2d_2">
      <g>
       <use style="stroke:#000000;stroke-width:0.8;" x="146.4" xlink:href="#m1623b657a8" y="512.64"/>
      </g>
     </g>
     <g id="text_2">
      <!-- −1.0 -->
      <defs>
       <path d="M 31.78125 66.40625 
Q 24.171875 66.40625 20.328125 58.90625 
Q 16.5 51.421875 16.5 36.375 
Q 16.5 21.390625 20.328125 13.890625 
Q 24.171875 6.390625 31.78125 6.390625 
Q 39.453125 6.390625 43.28125 13.890625 
Q 47.125 21.390625 47.125 36.375 
Q 47.125 51.421875 43.28125 58.90625 
Q 39.453125 66.40625 31.78125 66.40625 
z
M 31.78125 74.21875 
Q 44.046875 74.21875 50.515625 64.515625 
Q 56.984375 54.828125 56.984375 36.375 
Q 56.984375 17.96875 50.515625 8.265625 
Q 44.046875 -1.421875 31.78125 -1.421875 
Q 19.53125 -1.421875 13.0625 8.265625 
Q 6.59375 17.96875 6.59375 36.375 
Q 6.59375 54.828125 13.0625 64.515625 
Q 19.53125 74.21875 31.78125 74.21875 
z
" id="DejaVuSans-30"/>
      </defs>
      <g transform="translate(134.258594 527.238438)scale(0.1 -0.1)">
       <use xlink:href="#DejaVuSans-2212"/>
       <use x="83.789062" xlink:href="#DejaVuSans-31"/>
       <use x="147.412109" xlink:href="#DejaVuSans-2e"/>
       <use x="179.199219" xlink:href="#DejaVuSans-30"/>
      </g>
     </g>
    </g>
    <g id="xtick_3">
     <g id="line2d_3">
      <g>
       <use style="stroke:#000000;stroke-width:0.8;" x="220.8" xlink:href="#m1623b657a8" y="512.64"/>
      </g>
     </g>
     <g id="text_3">
      <!-- −0.5 -->
      <g transform="translate(208.658594 527.238438)scale(0.1 -0.1)">
       <use xlink:href="#DejaVuSans-2212"/>
       <use x="83.789062" xlink:href="#DejaVuSans-30"/>
       <use x="147.412109" xlink:href="#DejaVuSans-2e"/>
       <use x="179.199219" xlink:href="#DejaVuSans-35"/>
      </g>
     </g>
    </g>
    <g id="xtick_4">
     <g id="line2d_4">
      <g>
       <use style="stroke:#000000;stroke-width:0.8;" x="295.2" xlink:href="#m1623b657a8" y="512.64"/>
      </g>
     </g>
     <g id="text_4">
      <!-- 0.0 -->
      <g transform="translate(287.248437 527.238438)scale(0.1 -0.1)">
       <use xlink:href="#DejaVuSans-30"/>
       <use x="63.623047" xlink:href="#DejaVuSans-2e"/>
       <use x="95.410156" xlink:href="#DejaVuSans-30"/>
      </g>
     </g>
    </g>
    <g id="xtick_5">
     <g id="line2d_5">
      <g>
       <use style="stroke:#000000;stroke-width:0.8;" x="369.6" xlink:href="#m1623b657a8" y="512.64"/>
      </g>
     </g>
     <g id="text_5">
      <!-- 0.5 -->
      <g transform="translate(361.648437 527.238438)scale(0.1 -0.1)">
       <use xlink:href="#DejaVuSans-30"/>
       <use x="63.623047" xlink:href="#DejaVuSans-2e"/>
       <use x="95.410156" xlink:href="#DejaVuSans-35"/>
      </g>
     </g>
    </g>
    <g id="xtick_6">
     <g id="line2d_6">
      <g>
       <use style="stroke:#000000;stroke-width:0.8;" x="444" xlink:href="#m1623b657a8" y="512.64"/>
      </g>
     </g>
     <g id="text_6">
      <!-- 1.0 -->
      <g transform="translate(436.048437 527.238438)scale(0.1 -0.1)">
       <use xlink:href="#DejaVuSans-31"/>
       <use x="63.623047" xlink:href="#DejaVuSans-2e"/>
       <use x="95.410156" xlink:href="#DejaVuSans-30"/>
      </g>
     </g>
    </g>
    <g id="xtick_7">
     <g id="line2d_7">
      <g>
       <use style="stroke:#000000;stroke-width:0.8;" x="518.4" xlink:href="#m1623b657a8" y="512.64"/>
      </g>
     </g>
     <g id="text_7">
      <!-- 1.5 -->
      <g transform="translate(510.448437 527.238438)scale(0.1 -0.1)">
       <use xlink:href="#DejaVuSans-31"/>
       <use x="63.623047" xlink:href="#DejaVuSans-2e"/>
       <use x="95.410156" xlink:href="#DejaVuSans-35"/>
      </g>
     </g>
    </g>
   </g>
   <g id="matplotlib.axis_2">
    <g id="ytick_1">
     <g id="line2d_8">
      <defs>
       <path d="M 0 0 
L -3.5 0 
" id="m19572dfad9" style="stroke:#000000;stroke-width:0.8;"/>
      </defs>
      <g>
       <use style="stroke:#000000;stroke-width:0.8;" x="72" xlink:href="#m19572dfad9" y="512.64"/>
      </g>
     </g>
     <g id="text_8">
      <!-- −1.5 -->
      <g transform="translate(40.717187 516.439219)scale(0.1 -0.1)">
       <use xlink:href="#DejaVuSans-2212"/>
       <use x="83.789062" xlink:href="#DejaVuSans-31"/>
       <use x="147.412109" xlink:href="#DejaVuSans-2e"/>
       <use x="179.199219" xlink:href="#DejaVuSans-35"/>
      </g>
     </g>
    </g>
    <g id="ytick_2">
     <g id="line2d_9">
      <g>
       <use style="stroke:#000000;stroke-width:0.8;" x="72" xlink:href="#m19572dfad9" y="438.72"/>
      </g>
     </g>
     <g id="text_9">
      <!-- −1.0 -->
      <g transform="translate(40.717187 442.519219)scale(0.1 -0.1)">
       <use xlink:href="#DejaVuSans-2212"/>
       <use x="83.789062" xlink:href="#DejaVuSans-31"/>
       <use x="147.412109" xlink:href="#DejaVuSans-2e"/>
       <use x="179.199219" xlink:href="#DejaVuSans-30"/>
      </g>
     </g>
    </g>
    <g id="ytick_3">
     <g id="line2d_10">
      <g>
       <use style="stroke:#000000;stroke-width:0.8;" x="72" xlink:href="#m19572dfad9" y="364.8"/>
      </g>
     </g>
     <g id="text_10">
      <!-- −0.5 -->
      <g transform="translate(40.717187 368.599219)scale(0.1 -0.1)">
       <use xlink:href="#DejaVuSans-2212"/>
       <use x="83.789062" xlink:href="#DejaVuSans-30"/>
       <use x="147.412109" xlink:href="#DejaVuSans-2e"/>
       <use x="179.199219" xlink:href="#DejaVuSans-35"/>
      </g>
     </g>
    </g>
    <g id="ytick_4">
     <g id="line2d_11">
      <g>
       <use style="stroke:#000000;stroke-width:0.8;" x="72" xlink:href="#m19572dfad9" y="290.88"/>
      </g>
     </g>
     <g id="text_11">
      <!-- 0.0 -->
      <g transform="translate(49.096875 294.679219)scale(0.1 -0.1)">
       <use xlink:href="#DejaVuSans-30"/>
       <use x="63.623047" xlink:href="#DejaVuSans-2e"/>
       <use x="95.410156" xlink:href="#DejaVuSans-30"/>
      </g>
     </g>
    </g>
    <g id="ytick_5">
     <g id="line2d_12">
      <g>
       <use style="stroke:#000000;stroke-width:0.8;" x="72" xlink:href="#m19572dfad9" y="216.96"/>
      </g>
     </g>
     <g id="text_12">
      <!-- 0.5 -->
      <g transform="translate(49.096875 220.759219)scale(0.1 -0.1)">
       <use xlink:href="#DejaVuSans-30"/>
       <use x="63.623047" xlink:href="#DejaVuSans-2e"/>
       <use x="95.410156" xlink:href="#DejaVuSans-35"/>
      </g>
     </g>
    </g>
    <g id="ytick_6">
     <g id="line2d_13">
      <g>
       <use style="stroke:#000000;stroke-width:0.8;" x="72" xlink:href="#m19572dfad9" y="143.04"/>
      </g>
     </g>
     <g id="text_13">
      <!-- 1.0 -->
      <g transform="translate(49.096875 146.839219)scale(0.1 -0.1)">
       <use xlink:href="#DejaVuSans-31"/>
       <use x="63.623047" xlink:href="#DejaVuSans-2e"/>
       <use x="95.410156" xlink:href="#DejaVuSans-30"/>
      </g>
     </g>
    </g>
    <g id="ytick_7">
     <g id="line2d_14">
      <g>
       <use style="stroke:#000000;stroke-width:0.8;" x="72" xlink:href="#m19572dfad9" y="69.12"/>
      </g>
     </g>
     <g id="text_14">
      <!-- 1.5 -->
      <g transform="translate(49.096875 72.919219)scale(0.1 -0.1)">
       <use xlink:href="#DejaVuSans-31"/>
       <use x="63.623047" xlink:href="#DejaVuSans-2e"/>
       <use x="95.410156" xlink:href="#DejaVuSans-35"/>
      </g>
     </g>
    </g>
   </g>
   <g id="line2d_15">
    <path clip-path="url(#pb88d89fcd9)" d="M 444 290.88 
L 443.909355 285.720458 
L 443.637531 280.567203 
L 443.184858 275.426512 
L 442.551889 270.304649 
L 441.739394 265.207853 
L 440.748363 260.142336 
L 439.580004 255.114267 
L 438.23574 250.129773 
L 436.71721 245.194928 
L 435.026262 240.315742 
L 433.164958 235.498161 
L 431.135564 230.748055 
L 428.940554 226.07121 
L 426.582602 221.473324 
L 424.06458 216.96 
L 421.389557 212.536736 
L 418.560791 208.208921 
L 415.581729 203.981828 
L 412.456 199.860607 
L 409.187413 195.85028 
L 405.77995 191.955731 
L 402.237762 188.181707 
L 398.565166 184.532804 
L 394.766634 181.013469 
L 390.846796 177.62799 
L 386.810428 174.38049 
L 382.662446 171.274928 
L 378.407904 168.315085 
L 374.051987 165.504569 
L 369.6 162.846804 
L 365.057369 160.345028 
L 360.429627 158.002288 
L 355.722412 155.82144 
L 350.941461 153.805139 
L 346.092597 151.955843 
L 341.181729 150.275805 
L 336.214839 148.767071 
L 331.197978 147.43148 
L 326.13726 146.270659 
L 321.038849 145.286022 
L 315.908957 144.478769 
L 310.753835 143.849883 
L 305.579763 143.400131 
L 300.393045 143.13006 
L 295.2 143.04 
L 290.006955 143.13006 
L 284.820237 143.400131 
L 279.646165 143.849883 
L 274.491043 144.478769 
L 269.361151 145.286022 
L 264.26274 146.270659 
L 259.202022 147.43148 
L 254.185161 148.767071 
L 249.218271 150.275805 
L 244.307403 151.955843 
L 239.458539 153.805139 
L 234.677588 155.82144 
L 229.970373 158.002288 
L 225.342631 160.345028 
L 220.8 162.846804 
L 216.348013 165.504569 
L 211.992096 168.315085 
L 207.737554 171.274928 
L 203.589572 174.38049 
L 199.553204 177.62799 
L 195.633366 181.013469 
L 191.834834 184.532804 
L 188.162238 188.181707 
L 184.62005 191.955731 
L 181.212587 195.85028 
L 177.944 199.860607 
L 174.818271 203.981828 
L 171.839209 208.208921 
L 169.010443 212.536736 
L 166.33542 216.96 
L 163.817398 221.473324 
L 161.459446 226.07121 
L 159.264436 230.748055 
L 157.235042 235.498161 
L 155.373738 240.315742 
L 153.68279 245.194928 
L 152.16426 250.129773 
L 150.819996 255.114267 
L 149.651637 260.142336 
L 148.660606 265.207853 
L 147.848111 270.304649 
L 147.215142 275.426512 
L 146.762469 280.567203 
L 146.490645 285.720458 
L 146.4 290.88 
L 146.490645 296.039542 
L 146.762469 301.192797 
L 147.215142 306.333488 
L 147.848111 311.455351 
L 148.660606 316.552147 
L 149.651637 321.617664 
L 150.819996 326.645733 
L 152.16426 331.630227 
L 153.68279 336.565072 
L 155.373738 341.444258 
L 157.235042 346.261839 
L 159.264436 351.011945 
L 161.459446 355.68879 
L 163.817398 360.286676 
L 166.33542 364.8 
L 169.010443 369.223264 
L 171.839209 373.551079 
L 174.818271 377.778172 
L 177.944 381.899393 
L 181.212587 385.90972 
L 184.62005 389.804269 
L 188.162238 393.578293 
L 191.834834 397.227196 
L 195.633366 400.746531 
L 199.553204 404.13201 
L 203.589572 407.37951 
L 207.737554 410.485072 
L 211.992096 413.444915 
L 216.348013 416.255431 
L 220.8 418.913196 
L 225.342631 421.414972 
L 229.970373 423.757712 
L 234.677588 425.93856 
L 239.458539 427.954861 
L 244.307403 429.804157 
L 249.218271 431.484195 
L 254.185161 432.992929 
L 259.202022 434.32852 
L 264.26274 435.489341 
L 269.361151 436.473978 
L 274.491043 437.281231 
L 279.646165 437.910117 
L 284.820237 438.359869 
L 290.006955 438.62994 
L 295.2 438.72 
L 300.393045 438.62994 
L 305.579763 438.359869 
L 310.753835 437.910117 
L 315.908957 437.281231 
L 321.038849 436.473978 
L 326.13726 435.489341 
L 331.197978 434.32852 
L 336.214839 432.992929 
L 341.181729 431.484195 
L 346.092597 429.804157 
L 350.941461 427.954861 
L 355.722412 425.93856 
L 360.429627 423.757712 
L 365.057369 421.414972 
L 369.6 418.913196 
L 374.051987 416.255431 
L 378.407904 413.444915 
L 382.662446 410.485072 
L 386.810428 407.37951 
L 390.846796 404.13201 
L 394.766634 400.746531 
L 398.565166 397.227196 
L 402.237762 393.578293 
L 405.77995 389.804269 
L 409.187413 385.90972 
L 412.456 381.899393 
L 415.581729 377.778172 
L 418.560791 373.551079 
L 421.389557 369.223264 
L 424.06458 364.8 
L 426.582602 360.286676 
L 428.940554 355.68879 
L 431.135564 351.011945 
L 433.164958 346.261839 
L 435.026262 341.444258 
L 436.71721 336.565072 
L 438.23574 331.630227 
L 439.580004 326.645733 
L 440.748363 321.617664 
L 441.739394 316.552147 
L 442.551889 311.455351 
L 443.184858 306.333488 
L 443.637531 301.192797 
L 443.909355 296.039542 
L 444 290.88 
L 444 290.88 
" style="fill:none;stroke:#808080;stroke-dasharray:5.55,2.4;stroke-dashoffset:0;stroke-width:1.5;"/>
   </g>
   <g id="line2d_16">
    <path clip-path="url(#pb88d89fcd9)" d="M 444 290.88 
L 443.130873 285.747468 
L 442.084359 280.675111 
L 440.864564 275.668811 
L 439.475776 270.734179 
L 437.922449 265.876542 
L 436.209182 261.100944 
L 434.340701 256.412144 
L 432.321841 251.814616 
L 430.157526 247.312547 
L 427.852752 242.909841 
L 425.41257 238.610122 
L 422.842068 234.416735 
L 420.146354 230.332755 
L 417.330543 226.360993 
L 414.399737 222.504 
L 411.359015 218.764077 
L 408.213419 215.143283 
L 404.967938 211.643448 
L 401.6275 208.266178 
L 398.196959 205.012869 
L 394.681086 201.88472 
L 389.257489 197.429333 
L 383.66777 193.260481 
L 377.926747 189.380066 
L 372.048655 185.789308 
L 366.047121 182.488839 
L 359.935156 179.478804 
L 353.725157 176.758958 
L 347.428916 174.32876 
L 341.057653 172.18746 
L 334.622045 170.334185 
L 328.132274 168.768016 
L 321.598079 167.488051 
L 315.028819 166.49347 
L 308.433541 165.783584 
L 301.821053 165.357868 
L 295.2 165.216 
L 288.578947 165.357868 
L 281.966459 165.783584 
L 275.371181 166.49347 
L 268.801921 167.488051 
L 262.267726 168.768016 
L 255.777955 170.334185 
L 249.342347 172.18746 
L 242.971084 174.32876 
L 236.674843 176.758958 
L 230.464844 179.478804 
L 224.352879 182.488839 
L 218.351345 185.789308 
L 212.473253 189.380066 
L 206.73223 193.260481 
L 201.142511 197.429333 
L 195.718914 201.88472 
L 192.203041 205.012869 
L 188.7725 208.266178 
L 185.432062 211.643448 
L 182.186581 215.143283 
L 179.040985 218.764077 
L 176.000263 222.504 
L 173.069457 226.360993 
L 170.253646 230.332755 
L 167.557932 234.416735 
L 164.98743 238.610122 
L 162.547248 242.909841 
L 160.242474 247.312547 
L 158.078159 251.814616 
L 156.059299 256.412144 
L 154.190818 261.100944 
L 152.477551 265.876542 
L 150.924224 270.734179 
L 149.535436 275.668811 
L 148.315641 280.675111 
L 147.269127 285.747468 
L 146.4 290.88 
L 145.712163 296.066551 
L 145.209298 301.300705 
L 144.894847 306.575787 
L 144.771998 311.884882 
L 144.843662 317.220835 
L 145.112456 322.576272 
L 145.580693 327.94361 
L 146.250361 333.315069 
L 147.123107 338.682692 
L 148.200228 344.038357 
L 149.482655 349.373799 
L 150.97094 354.680625 
L 152.665246 359.950336 
L 154.565339 365.174345 
L 156.670576 370.344 
L 158.979902 375.450605 
L 161.491837 380.485441 
L 164.204481 385.439791 
L 167.1155 390.304963 
L 170.222132 395.072309 
L 173.521186 399.733257 
L 177.009036 404.279328 
L 180.681633 408.702162 
L 184.534501 412.993543 
L 188.562749 417.145421 
L 192.761072 421.14994 
L 197.123764 424.999453 
L 201.644724 428.686553 
L 206.317472 432.20409 
L 211.135156 435.545196 
L 216.090572 438.703303 
L 221.176173 441.672166 
L 226.384091 444.445881 
L 231.706151 447.018901 
L 237.133893 449.386058 
L 242.658588 451.542576 
L 248.271262 453.484086 
L 253.962719 455.206643 
L 259.723559 456.706733 
L 265.544206 457.98129 
L 271.41493 459.027701 
L 277.32587 459.843818 
L 283.267065 460.427962 
L 289.228473 460.77893 
L 295.2 460.896 
L 301.171527 460.77893 
L 307.132935 460.427962 
L 313.07413 459.843818 
L 318.98507 459.027701 
L 324.855794 457.98129 
L 330.676441 456.706733 
L 336.437281 455.206643 
L 342.128738 453.484086 
L 347.741412 451.542576 
L 353.266107 449.386058 
L 358.693849 447.018901 
L 364.015909 444.445881 
L 369.223827 441.672166 
L 374.309428 438.703303 
L 379.264844 435.545196 
L 384.082528 432.20409 
L 388.755276 428.686553 
L 393.276236 424.999453 
L 397.638928 421.14994 
L 401.837251 417.145421 
L 405.865499 412.993543 
L 409.718367 408.702162 
L 413.390964 404.279328 
L 416.878814 399.733257 
L 420.177868 395.072309 
L 423.2845 390.304963 
L 426.195519 385.439791 
L 428.908163 380.485441 
L 431.420098 375.450605 
L 433.729424 370.344 
L 435.834661 365.174345 
L 437.734754 359.950336 
L 439.42906 354.680625 
L 440.917345 349.373799 
L 442.199772 344.038357 
L 443.276893 338.682692 
L 444.149639 333.315069 
L 444.819307 327.94361 
L 445.287544 322.576272 
L 445.556338 317.220835 
L 445.628002 311.884882 
L 445.505153 306.575787 
L 445.190702 301.300705 
L 444.687837 296.066551 
L 444 290.88 
L 444 290.88 
" style="fill:none;stroke:#0000ff;stroke-dasharray:5.55,2.4;stroke-dashoffset:0;stroke-width:1.5;"/>
   </g>
   <g id="line2d_17">
    <path clip-path="url(#pb88d89fcd9)" d="M 444 290.88 
L 444.687837 285.693449 
L 445.190702 280.459295 
L 445.505153 275.184213 
L 445.628002 269.875118 
L 445.556338 264.539165 
L 445.287544 259.183728 
L 444.819307 253.81639 
L 444.149639 248.444931 
L 443.276893 243.077308 
L 442.199772 237.721643 
L 440.917345 232.386201 
L 439.42906 227.079375 
L 437.734754 221.809664 
L 435.834661 216.585655 
L 433.729424 211.416 
L 431.420098 206.309395 
L 428.908163 201.274559 
L 426.195519 196.320209 
L 423.2845 191.455037 
L 420.177868 186.687691 
L 416.878814 182.026743 
L 413.390964 177.480672 
L 409.718367 173.057838 
L 405.865499 168.766457 
L 401.837251 164.614579 
L 397.638928 160.61006 
L 393.276236 156.760547 
L 388.755276 153.073447 
L 384.082528 149.55591 
L 379.264844 146.214804 
L 374.309428 143.056697 
L 369.223827 140.087834 
L 364.015909 137.314119 
L 358.693849 134.741099 
L 353.266107 132.373942 
L 347.741412 130.217424 
L 342.128738 128.275914 
L 336.437281 126.553357 
L 330.676441 125.053267 
L 324.855794 123.77871 
L 318.98507 122.732299 
L 313.07413 121.916182 
L 307.132935 121.332038 
L 301.171527 120.98107 
L 295.2 120.864 
L 289.228473 120.98107 
L 283.267065 121.332038 
L 277.32587 121.916182 
L 271.41493 122.732299 
L 265.544206 123.77871 
L 259.723559 125.053267 
L 253.962719 126.553357 
L 248.271262 128.275914 
L 242.658588 130.217424 
L 237.133893 132.373942 
L 231.706151 134.741099 
L 226.384091 137.314119 
L 221.176173 140.087834 
L 216.090572 143.056697 
L 211.135156 146.214804 
L 206.317472 149.55591 
L 201.644724 153.073447 
L 197.123764 156.760547 
L 192.761072 160.61006 
L 188.562749 164.614579 
L 184.534501 168.766457 
L 180.681633 173.057838 
L 177.009036 177.480672 
L 173.521186 182.026743 
L 170.222132 186.687691 
L 167.1155 191.455037 
L 164.204481 196.320209 
L 161.491837 201.274559 
L 158.979902 206.309395 
L 156.670576 211.416 
L 154.565339 216.585655 
L 152.665246 221.809664 
L 150.97094 227.079375 
L 149.482655 232.386201 
L 148.200228 237.721643 
L 147.123107 243.077308 
L 146.250361 248.444931 
L 145.580693 253.81639 
L 145.112456 259.183728 
L 144.843662 264.539165 
L 144.771998 269.875118 
L 144.894847 275.184213 
L 145.209298 280.459295 
L 145.712163 285.693449 
L 146.4 290.88 
L 147.269127 296.012532 
L 148.315641 301.084889 
L 149.535436 306.091189 
L 150.924224 311.025821 
L 152.477551 315.883458 
L 154.190818 320.659056 
L 156.059299 325.347856 
L 158.078159 329.945384 
L 160.242474 334.447453 
L 162.547248 338.850159 
L 164.98743 343.149878 
L 167.557932 347.343265 
L 170.253646 351.427245 
L 173.069457 355.399007 
L 176.000263 359.256 
L 179.040985 362.995923 
L 182.186581 366.616717 
L 185.432062 370.116552 
L 188.7725 373.493822 
L 192.203041 376.747131 
L 195.718914 379.87528 
L 201.142511 384.330667 
L 206.73223 388.499519 
L 212.473253 392.379934 
L 218.351345 395.970692 
L 224.352879 399.271161 
L 230.464844 402.281196 
L 236.674843 405.001042 
L 242.971084 407.43124 
L 249.342347 409.57254 
L 255.777955 411.425815 
L 262.267726 412.991984 
L 268.801921 414.271949 
L 275.371181 415.26653 
L 281.966459 415.976416 
L 288.578947 416.402132 
L 295.2 416.544 
L 301.821053 416.402132 
L 308.433541 415.976416 
L 315.028819 415.26653 
L 321.598079 414.271949 
L 328.132274 412.991984 
L 334.622045 411.425815 
L 341.057653 409.57254 
L 347.428916 407.43124 
L 353.725157 405.001042 
L 359.935156 402.281196 
L 366.047121 399.271161 
L 372.048655 395.970692 
L 377.926747 392.379934 
L 383.66777 388.499519 
L 389.257489 384.330667 
L 394.681086 379.87528 
L 398.196959 376.747131 
L 401.6275 373.493822 
L 404.967938 370.116552 
L 408.213419 366.616717 
L 411.359015 362.995923 
L 414.399737 359.256 
L 417.330543 355.399007 
L 420.146354 351.427245 
L 422.842068 347.343265 
L 425.41257 343.149878 
L 427.852752 338.850159 
L 430.157526 334.447453 
L 432.321841 329.945384 
L 434.340701 325.347856 
L 436.209182 320.659056 
L 437.922449 315.883458 
L 439.475776 311.025821 
L 440.864564 306.091189 
L 442.084359 301.084889 
L 443.130873 296.012532 
L 444 290.88 
L 444 290.88 
" style="fill:none;stroke:#ff0000;stroke-dasharray:5.55,2.4;stroke-dashoffset:0;stroke-width:1.5;"/>
   </g>
   <g id="patch_11">
    <path d="M 72 512.64 
L 72 69.12 
" style="fill:none;stroke:#000000;stroke-linecap:square;stroke-linejoin:miter;stroke-width:0.8;"/>
   </g>
   <g id="patch_12">
    <path d="M 518.4 512.64 
L 518.4 69.12 
" style="fill:none;stroke:#000000;stroke-linecap:square;stroke-linejoin:miter;stroke-width:0.8;"/>
   </g>
   <g id="patch_13">
    <path d="M 72 512.64 
L 518.4 512.64 
" style="fill:none;stroke:#000000;stroke-linecap:square;stroke-linejoin:miter;stroke-width:0.8;"/>
   </g>
   <g id="patch_14">
    <path d="M 72 69.12 
L 518.4 69.12 
" style="fill:none;stroke:#000000;stroke-linecap:square;stroke-linejoin:miter;stroke-width:0.8;"/>
   </g>
  </g>
 </g>
 <defs>
  <clipPath id="pb88d89fcd9">
   <rect height="443.52" width="446.4" x="72" y="69.12"/>
  </clipPath>
 </defs>
</svg>
